<svg xmlns="http://www.w3.org/2000/svg" xmlns:svg="http://www.w3.org/2000/svg" xmlns:xlink="http://www.w3.org/1999/xlink" id="SVGRoot" width="64" height="64" version="1.1" viewBox="0 0 64 64" xml:space="preserve"><g id="layer1"><g id="layer1-3" transform="translate(2.9179447,15.113792)" style="display:inline"><path style="opacity:1;fill:none;stroke:#fff;stroke-width:1;stroke-linecap:round;stroke-linejoin:round;stop-color:#000" id="path26" d="m 5,1 v 35.963506 l 7.440725,-7.440725 6.200605,8.680846 7.440725,-3.720363 -4.960483,-7.440725 h 12.401209 z"/><path style="display:none;opacity:1;fill:none;stroke:#000;stroke-width:2;stroke-linecap:round;stroke-linejoin:round;stop-color:#000" id="path851" d="M 5,18.977829 C 13.15721,22.499704 17,16 17,16"/><circle style="display:none;opacity:1;fill:#000;stroke:none;stroke-width:2;stroke-linecap:round;stroke-linejoin:round;stop-color:#000" id="path977" cx="8.356" cy="13.886" r="1.726"/><circle style="display:none;fill:#000;stroke:none;stroke-width:2;stroke-linecap:round;stroke-linejoin:round;stop-color:#000" id="path977-3" cx="12.984" cy="13.836" r="1.872"/></g><g id="g7"><circle style="display:none;fill:none;fill-opacity:1;stroke:#fff;-inkscape-stroke:none" id="path4" cx="44" cy="40" r="16"/><path style="display:inline;fill:none;stroke:#fff" id="path1" d="m 28.791016,35.171875 7.65039,6.984375 H 28.1875 A 16,16 0 0 0 44,56 16,16 0 0 0 60,40 16,16 0 0 0 44,24 16,16 0 0 0 28.791016,35.171875 Z"/><path style="fill:#fff;stroke:#fff;stroke-width:1;stroke-linecap:square;stop-color:#000" id="path4096-9" d="m 48,38 9.5,2 -9.5,2"/><path style="fill:none;stroke:#fff;stroke-width:1;stroke-linecap:square;stop-color:#000" id="path4102-5" d="m 53.946329,27.479727 c 0.35314,-0.436052 0.789192,-0.872103 1.225243,-1.308155 C 56.585785,24.757358 58,23.343145 59.414213,24.757359 60.828427,26.171572 59.414214,27.585786 58,29 c -0.404575,0.404575 -0.809151,0.80915 -1.213726,1.147503"/><path style="display:inline;fill:none;stroke:#fff;stroke-width:1;stroke-linecap:square;stop-color:#000" id="path4102-5-4" d="M 33.053671,27.479727 C 32.700531,27.043675 32.264479,26.607624 31.828428,26.171572 30.414215,24.757358 29,23.343145 27.585787,24.757359 26.171573,26.171572 27.585786,27.585786 29,29 c 0.404575,0.404575 0.809151,0.80915 1.213726,1.147503"/><path style="fill:none;stroke:#fff;stroke-width:1;stroke-linecap:square;stop-color:#000" id="path4102-5-5" d="m 42,23.5 c 0,-2 0,-2 2,-2 2,0 2,0 2,2"/><path style="fill:none;stroke:#fff;stroke-width:1;stroke-linecap:square;stop-color:#000" id="path4102-5-5-1" d="m 44,17.5 c 2,0 4,0 4,2 0,2 -2,2 -4,2 -2,0 -4,1e-6 -4,-2 0,-1.999999 2,-2 4,-2 z"/><circle style="fill:none;fill-opacity:1;stroke:#fff;-inkscape-stroke:none" id="path5" cx="44" cy="40" r="4"/><g id="g12"><path style="fill:none;stroke:#fff;stroke-width:1;stroke-linecap:square;stop-color:#000" id="path4096-9-9-7" d="m 44,26 v 2"/><use id="use22" x="0" y="0" transform="rotate(30,44,40)" xlink:href="#path4096-9-9-7"/><use id="use22-3" x="0" y="0" transform="rotate(60,44,40)" xlink:href="#path4096-9-9-7"/><use id="use22-6" x="0" y="0" transform="rotate(90,44,40)" xlink:href="#path4096-9-9-7"/><use id="use22-1" x="0" y="0" transform="rotate(120,44,40)" xlink:href="#path4096-9-9-7"/><use id="use22-4" x="0" y="0" transform="rotate(150,44,40)" xlink:href="#path4096-9-9-7"/><use id="use22-9" x="0" y="0" transform="rotate(180,44,40)" xlink:href="#path4096-9-9-7"/><use id="use22-0" x="0" y="0" transform="rotate(-150,44,40)" xlink:href="#path4096-9-9-7"/><use id="use22-62" x="0" y="0" transform="rotate(-120,44,40)" xlink:href="#path4096-9-9-7"/><use id="use22-67" x="0" y="0" transform="rotate(-90,44,40)" xlink:href="#path4096-9-9-7" style="display:none"/><use id="use22-65" x="0" y="0" transform="rotate(-60,44,40)" xlink:href="#path4096-9-9-7"/><use id="use22-7" x="0" y="0" transform="rotate(-30,44,40)" xlink:href="#path4096-9-9-7"/></g></g><g id="g6" transform="translate(0,2)"><path style="fill:none;stroke:#fff;stroke-width:1;stroke-linecap:square;stop-color:#000" id="path4096-9-9" d="M 8,6 V 9"/><path style="fill:none;stroke:#fff;stroke-width:1;stroke-linecap:square;stop-color:#000" id="path4096-9-9-95" d="m 2.5,12 h 3"/><path style="fill:none;stroke:#fff;stroke-width:1;stroke-linecap:square;stop-color:#000" id="path4096-9-9-95-2" d="m 10.5,12 h 3"/><path style="fill:none;stroke:#fff;stroke-width:1;stroke-linecap:square;stop-color:#000" id="path4096-9-9-9" d="M 12.236068,8 10,10"/><path style="fill:none;stroke:#fff;stroke-width:1;stroke-linecap:square;stop-color:#000" id="path4096-9-9-4" d="M 4,7.763932 6,10"/></g></g></svg>