<svg xmlns="http://www.w3.org/2000/svg" xmlns:svg="http://www.w3.org/2000/svg" xmlns:xlink="http://www.w3.org/1999/xlink" id="SVGRoot" width="64" height="64" version="1.1" viewBox="0 0 64 64"><g id="layer1"><g id="g3699" transform="translate(1.448614,3.114008)"><path style="fill:none;stroke:#fff;stroke-width:1;stroke-linecap:square;stop-color:#000" id="path4096" d="m 30.551385,12.885992 v 3"/><path style="fill:none;stroke:#fff;stroke-width:1;stroke-linecap:square;stop-color:#000" id="path4096-9" d="m 30.551385,23.885992 v 3"/><path style="fill:none;stroke:#fff;stroke-width:1;stroke-linecap:square;stop-color:#000" id="path4098" d="m 19.301385,26.885992 h 22.5"/><path style="fill:none;stroke:#fff;stroke-width:1;stroke-linecap:square;stop-color:#000" id="path4102" d="m 28.551385,19.885992 c 0,-2 0,-4 2,-4 2,0 2,2 2,4 0,2 10e-7,4 -2,4 -1.999999,0 -2,-2 -2,-4 z"/><path id="path4104" d="m 42.551386,28.885992 c 0,7.731986 -2.000001,16 -12,16 -10.000001,0 -12,-8.268014 -12,-16 0,-7.731986 1.999999,-16 12,-16 9.999999,0 12,8.268014 12,16 z" style="fill:none;stroke:#fff;stroke-linecap:square;stop-color:#000"/></g><g id="g3604" transform="translate(-1.5004166,2.326335)" style="stroke-width:1"><path style="fill:none;stroke:#fff;stroke-width:1;stroke-linecap:square;stop-color:#000" id="path3594" d="M 8.5115839,29.673665 H 20.500416"/><path style="fill:none;stroke:#fff;stroke-width:1;stroke-linecap:square;stop-color:#000" id="path3596" d="M 12.710586,33.54024 7.8742917,29.593304 12.666634,25.671743"/></g><use id="use3606" x="0" y="0" transform="matrix(-1,0,0,1,62.999998,0)" xlink:href="#g3604" style="stroke-width:1"/><use id="use3606-7" x="0" y="0" transform="matrix(0,1,1,0,-5.9e-7,-3.0055833)" xlink:href="#g3604" style="stroke-width:1"/><use id="use3606-7-5" x="0" y="0" transform="rotate(-90,33.5,33.5)" xlink:href="#g3604" style="stroke-width:1"/></g></svg>