<svg xmlns="http://www.w3.org/2000/svg" xmlns:svg="http://www.w3.org/2000/svg" xmlns:xlink="http://www.w3.org/1999/xlink" id="SVGRoot" width="64" height="64" version="1.1" viewBox="0 0 64 64"><g id="layer1"><g id="g3699" transform="translate(0.44861459,3.114008)"><path style="fill:none;stroke:#fff;stroke-width:1;stroke-linecap:square;stop-color:#000" id="path1660" d="m 30.141868,12.978181 c 14.494394,-1.150235 14.279704,11.10915 12.398736,17.726188 -1.811897,6.374057 -1.014423,8.596418 -3.989219,11.681623 C 35.57659,45.471196 28.068583,46.316195 24.159832,42.123198 21.531192,39.303401 21.197535,35.865302 19.751164,31.11657 17.067937,22.306985 19.888772,13.791838 30.141868,12.978181 Z"/><path style="fill:none;stroke:#fff;stroke-width:1;stroke-linecap:square;stop-color:#000" id="path3273" d="m 34.049842,27.080668 c 0.01551,1.045547 0.30038,1.817774 0.538426,2.018566 2.96671,2.50248 -1.324581,6.211798 -3.858385,3.634784"/><path style="fill:none;stroke:#fff;stroke-width:1;stroke-linecap:square;stop-color:#000" id="path3273-3" d="m 37.164979,36.569026 c -1.967047,3.259348 -6.756567,4.047549 -9.731686,0.636254"/><path style="fill:none;stroke:#fff;stroke-width:1;stroke-linecap:square;stop-color:#000" id="path3547" d="m 29.303443,26.583633 c -0.286386,-3.512331 -5.95152,-3.14935 -6.125787,0.0025 1.177451,1.011134 4.143639,1.403238 6.125787,-0.0025 z"/><path style="fill:none;stroke:#fff;stroke-width:1;stroke-linecap:square;stop-color:#000" id="path3547-3" d="m 40.199316,26.313676 c -0.388768,-3.372612 -6.017232,-3.133673 -6.152333,0.105298 1.343476,1.302451 4.337462,1.588922 6.152333,-0.105298 z"/><circle style="fill:#fff;stroke:#fff;stroke-width:1;stroke-linecap:square;stop-color:#000" id="path3815" cx="26.39" cy="26.664" r=".756"/><circle style="fill:#fff;stroke:#fff;stroke-width:1;stroke-linecap:square;stop-color:#000" id="path3815-2" cx="37.2" cy="26.603" r=".756"/><path style="fill:none;stroke:#fff;stroke-width:1;stroke-linecap:square;stop-color:#000" id="path3942" d="m 23.975227,24.831052 c 2.776779,-1.22921 3.865192,-0.537986 5.217286,-0.146685" transform="translate(-0.44861459,-3.114008)"/><path style="fill:none;stroke:#fff;stroke-width:1;stroke-linecap:square;stop-color:#000" id="path3942-6" d="m 34.747591,24.816768 c 2.776779,-1.22921 3.865192,-0.537986 5.217286,-0.146685" transform="translate(-0.44861459,-3.114008)"/></g><g id="g3604" transform="translate(-1.2902128,1.7529011)" style="stroke-width:1"><path style="fill:none;stroke:#fff;stroke-width:1;stroke-linecap:square;stop-color:#000" id="path3594" d="M 8.5115839,29.673665 H 20.500416"/><path style="fill:none;stroke:#fff;stroke-width:1;stroke-linecap:square;stop-color:#000" id="path3596" d="M 12.710586,33.54024 7.8742917,29.593304 12.666634,25.671743"/></g><use id="use3606" x="0" y="0" transform="matrix(-1,0,0,1,63.290614,0.28671953)" xlink:href="#g3604" style="stroke-width:1"/><use id="use3606-7" x="0" y="0" transform="matrix(0,1,1,0,0.26118063,-3.4097407)" xlink:href="#g3604" style="stroke-width:1"/><use id="use3606-7-5" x="0" y="0" transform="rotate(-90,34.317638,33.52309)" xlink:href="#g3604" style="stroke-width:1"/></g></svg>